<?xml version="1.0" encoding="UTF-8"?>
<svg version="1.1" xmlns="http://www.w3.org/2000/svg" width="512" height="512">
<path d="M0 0 C11.55 0 23.1 0 35 0 C35 77.88 35 155.76 35 236 C49.19 236 63.38 236 78 236 C84 241 84 241 84.7265625 243.31640625 C84.4515731 249.39790253 84.4515731 249.39790253 82.125 252.5 C78.57869537 255.00327385 76.53904037 255.12765194 72.21088028 255.13701439 C70.97050955 255.14208893 69.73013882 255.14716347 68.4521811 255.15239179 C67.06303044 255.15299352 65.67387973 255.15349258 64.284729 255.15390015 C62.81884893 255.15791327 61.35296997 255.16235124 59.88709235 255.1671797 C55.84423525 255.17916775 51.8013901 255.1847988 47.7585187 255.18936086 C43.40392552 255.19530848 39.0493467 255.20692039 34.69476318 255.21765137 C24.17119643 255.24219417 13.64762492 255.25680503 3.12403834 255.26971143 C0.153102 255.27342192 -2.81783386 255.27739526 -5.78876972 255.2814641 C-24.22694115 255.30669852 -42.6651133 255.32875767 -61.10329819 255.34119225 C-65.37583163 255.34412208 -69.64836505 255.34708372 -73.92089844 255.35009766 C-74.98285243 255.35084371 -76.04480642 255.35158976 -77.13894084 255.35235842 C-94.34870422 255.36501677 -111.55836438 255.3982452 -128.76807949 255.43989949 C-146.42574625 255.48228864 -164.08336014 255.50588377 -181.74107766 255.51111281 C-191.65978942 255.5145303 -201.57833988 255.52632522 -211.49700165 255.55921555 C-219.94287292 255.58717573 -228.38854984 255.59823315 -236.8344638 255.58702008 C-241.14514355 255.58182311 -245.45541605 255.58478716 -249.76603699 255.60948563 C-253.71160273 255.63190412 -257.65646696 255.63129664 -261.60204437 255.61228175 C-263.03008609 255.60947128 -264.45817463 255.61513838 -265.88614079 255.63009469 C-277.88879572 255.74813139 -277.88879572 255.74813139 -281.84354019 252.59090614 C-284.56742114 249.31826464 -284.77597769 247.99667994 -284.46875 243.93359375 C-283.73623313 240.91196165 -282.19716904 239.13254642 -280 237 C-277.69179492 235.84589746 -276.39215724 235.8789703 -273.82568359 235.88647461 C-272.95290771 235.88659546 -272.08013184 235.88671631 -271.1809082 235.88684082 C-270.26269287 235.89195679 -269.34447754 235.89707275 -268.3984375 235.90234375 C-267.13350464 235.90385437 -267.13350464 235.90385437 -265.84301758 235.90539551 C-262.68699792 235.91063524 -259.53099762 235.92459647 -256.375 235.9375 C-249.32125 235.958125 -242.2675 235.97875 -235 236 C-235 212.9 -235 189.8 -235 166 C-223.12 166 -211.24 166 -199 166 C-199 189.1 -199 212.2 -199 236 C-193.72 236 -188.44 236 -183 236 C-183 234.35 -183 232.7 -183 231 C-175.54754394 228.30883531 -167.94251597 226 -160 226 C-160 229.3 -160 232.6 -160 236 C-154.72 236 -149.44 236 -144 236 C-144 195.41 -144 154.82 -144 113 C-132.12 113 -120.24 113 -108 113 C-108 153.59 -108 194.18 -108 236 C-102.72 236 -97.44 236 -92 236 C-92.07331543 234.72471436 -92.14663086 233.44942871 -92.22216797 232.13549805 C-92.47740946 227.36022961 -92.6369014 222.58554686 -92.76904297 217.80541992 C-92.83904686 215.74546674 -92.93429963 213.68619937 -93.05615234 211.62866211 C-94.01590186 194.99434809 -94.01590186 194.99434809 -90.65823364 190.00698853 C-87.42699622 186.65063814 -83.73626544 184.2657174 -79.68836975 182.00471497 C-77.25777482 180.55831669 -75.25075449 178.73471266 -73.1875 176.8125 C-70.09836066 174 -70.09836066 174 -69 174 C-69 194.46 -69 214.92 -69 236 C-63.39 236 -57.78 236 -52 236 C-52 173.63 -52 111.26 -52 47 C-40.45 47 -28.9 47 -17 47 C-17 109.37 -17 171.74 -17 236 C-11.39 236 -5.78 236 0 236 C0 158.12 0 80.24 0 0 Z " fill="#6C26B2" transform="translate(428,227)"/>
<path d="M0 0 C1.35738281 0.16435547 1.35738281 0.16435547 2.7421875 0.33203125 C6.77231307 0.80815127 10.80688207 1.23746691 14.84277344 1.66162109 C17.0240654 1.89540324 19.20437082 2.13851133 21.38378906 2.38916016 C65.76328493 7.42983855 109.77805691 5.29616322 154 0 C155.38815941 4.61350233 156.45178729 9.108685 157.21875 13.875 C157.32165848 14.51293488 157.42456696 15.15086975 157.53059387 15.80813599 C157.86020068 17.87113276 158.18140645 19.93527506 158.5 22 C158.61016449 22.71041443 158.72032898 23.42082886 158.83383179 24.152771 C161.92540483 44.23151376 163 63.50427294 163 84 C106.24 84 49.48 84 -9 84 C-9 73.91747533 -8.6518718 64.13303905 -7.8125 54.125 C-7.74919495 53.35373779 -7.68588989 52.58247559 -7.6206665 51.7878418 C-6.18482173 34.58598832 -4.43171782 16.72535312 0 0 Z " fill="#6B26B3" transform="translate(129,145)"/>
<path d="M0 0 C56.76 0 113.52 0 172 0 C172 24.4402277 172 24.4402277 170.75 36.25 C170.61940186 37.54687744 170.48880371 38.84375488 170.35424805 40.17993164 C169.07456496 52.53151999 167.16674913 64.7758271 165 77 C163.77023437 77.05607422 163.77023437 77.05607422 162.515625 77.11328125 C161.43796875 77.17902344 160.3603125 77.24476563 159.25 77.3125 C158.18265625 77.37050781 157.1153125 77.42851562 156.015625 77.48828125 C152.74920785 78.0425567 151.54298826 78.99519448 149 81 C146.98779297 81.32592773 146.98779297 81.32592773 144.8671875 81.24609375 C144.07666992 81.2188623 143.28615234 81.19163086 142.47167969 81.16357422 C138.34461432 80.89044761 134.23808294 80.49501447 130.125 80.0625 C121.42258675 79.21058903 112.73797514 78.69138127 104 78.375 C102.91605957 78.33511963 101.83211914 78.29523926 100.71533203 78.25415039 C86.99723324 77.80313013 73.38384656 78.04381356 59.6875 78.8125 C58.90807037 78.85501892 58.12864075 78.89753784 57.32559204 78.94134521 C45.09996259 79.61831871 33.02339119 80.76248942 20.88671875 82.4140625 C16.87718752 82.94476968 13.04080287 83.12261747 9 83 C6.15718297 70.69120713 4.28452119 58.34749682 2.8125 45.8125 C2.72818726 45.10732239 2.64387451 44.40214478 2.55700684 43.67559814 C0.82777563 29.09478497 0 14.70468944 0 0 Z " fill="#6B26B3" transform="translate(120,246)"/>
<path d="M0 0 C24.85684374 21.32288352 39.70497658 54.92407307 46.875 86.375 C46.875 87.365 46.875 88.355 46.875 89.375 C43.855356 89.84243715 40.83457676 90.29874949 37.8125 90.75 C37.00361328 90.87632812 36.19472656 91.00265625 35.36132812 91.1328125 C15.27632625 94.09738842 -4.78838929 94.74455406 -25.0625 94.6875 C-26.30737183 94.68667419 -27.55224365 94.68584839 -28.83483887 94.68499756 C-52.62651009 94.64874024 -75.62282195 93.13438331 -99.125 89.375 C-93.61953229 63.84718957 -83.37854058 36.98852318 -67.125 16.375 C-66.39796875 15.40691406 -65.6709375 14.43882813 -64.921875 13.44140625 C-56.20304838 2.20753349 -45.09062457 -7.08732944 -30.68359375 -9.40234375 C-19.24342907 -10.39790007 -9.09810322 -6.93392217 0 0 Z " fill="#6B26B3" transform="translate(232.125,39.625)"/>
<path d="M0 0 C3.49632031 0.59289126 6.43031358 1.50742257 9.640625 3.00390625 C10.97988037 3.61455933 10.97988037 3.61455933 12.34619141 4.23754883 C13.30444824 4.67478271 14.26270508 5.1120166 15.25 5.5625 C33.61268554 13.72287863 52.62376267 19.3192309 72.24194336 23.55444336 C74 24 74 24 76 25 C75.82871582 26.07145264 75.65743164 27.14290527 75.48095703 28.24682617 C71.72229836 51.83775564 68.21779746 75.17488562 67.34057617 99.07861328 C67.30939697 99.89700684 67.27821777 100.71540039 67.24609375 101.55859375 C67.21020142 102.63065063 67.21020142 102.63065063 67.17358398 103.72436523 C66.96167422 106.50243968 66.4580394 109.25176361 66 112 C32.01 112 -1.98 112 -37 112 C-37 102.98648821 -36.91915 95.13631048 -35.375 86.4375 C-35.19678711 85.41301758 -35.01857422 84.38853516 -34.83496094 83.33300781 C-29.4163713 53.61786568 -17.73497427 24.54439132 0 0 Z " fill="#6B26B3" transform="translate(37,117)"/>
<path d="M0 0 C1.28344727 1.52441406 1.28344727 1.52441406 2.56640625 3.515625 C3.04698486 4.26126709 3.52756348 5.00690918 4.02270508 5.77514648 C4.78490356 7.00019897 4.78490356 7.00019897 5.5625 8.25 C6.35660278 9.52242554 6.35660278 9.52242554 7.16674805 10.82055664 C25.3432627 40.56666651 37 75.96556234 37 111 C2.68 111 -31.64 111 -67 111 C-67.99 96.81 -68.98 82.62 -70 68 C-71.58033673 55.35730616 -73.19334908 42.84855688 -75.63061523 30.35742188 C-76 28 -76 28 -76 24 C-74.9790625 23.72027344 -73.958125 23.44054687 -72.90625 23.15234375 C-68.86929767 22.04241821 -64.83765688 20.91398599 -60.80664062 19.78271484 C-58.92137901 19.25695382 -57.0346242 18.73652046 -55.14648438 18.22119141 C-39.42896334 13.92812605 -24.22669481 8.7923404 -9.47998047 1.80615234 C-8.28139404 1.24275146 -8.28139404 1.24275146 -7.05859375 0.66796875 C-6.34888428 0.32403076 -5.6391748 -0.01990723 -4.90795898 -0.37426758 C-3 -1 -3 -1 0 0 Z " fill="#6B26B3" transform="translate(376,118)"/>
<path d="M0 0 C33.99 0 67.98 0 103 0 C103.71897222 4.31383331 104.18906056 8.20358198 104.39453125 12.53125 C104.4608374 13.80226563 104.52714355 15.07328125 104.59545898 16.3828125 C104.63033417 17.05344727 104.66520935 17.72408203 104.70114136 18.41503906 C105.82932322 39.5379179 108.22342584 60.52358854 112.484375 81.26171875 C113 84 113 84 113 87 C112.26177002 87.17539307 111.52354004 87.35078613 110.76293945 87.53149414 C88.86875161 92.77041809 68.05242651 98.93283807 47.44140625 108.08203125 C44.01445213 109.59428404 40.58490368 110.89829789 37 112 C14.47356666 78.48622019 0 40.70903735 0 0 Z " fill="#6B26B3" transform="translate(0,246)"/>
<path d="M0 0 C0.67929565 0.03920563 1.35859131 0.07841125 2.05847168 0.11880493 C11.7027312 0.68830978 21.19606729 1.73107677 30.75 3.125 C32.38170624 43.10807869 32.38170624 43.10807869 22.75 58.125 C21.95553208 59.51367741 21.16918269 60.90702797 20.390625 62.3046875 C16.97275063 68.33006354 13.36570153 73.93528448 8.75 79.125 C8.42 79.125 8.09 79.125 7.75 79.125 C7.73541748 77.99481445 7.72083496 76.86462891 7.70581055 75.70019531 C7.64779315 71.50293501 7.57056063 67.30620927 7.48754883 63.109375 C7.45431564 61.29370811 7.42627866 59.47793832 7.40356445 57.66210938 C7.36998859 55.05033558 7.31767238 52.43950346 7.26171875 49.828125 C7.25532883 49.01756653 7.2489389 48.20700806 7.24235535 47.37188721 C7.15734964 44.10598986 6.98056801 41.57129465 5.46801758 38.64355469 C2.29664483 35.84038025 -1.31241108 35.99704461 -5.39819336 35.97973633 C-6.93515114 35.97016655 -6.93515114 35.97016655 -8.50315857 35.96040344 C-9.60426468 35.95929062 -10.70537079 35.9581778 -11.83984375 35.95703125 C-13.54485802 35.95203865 -13.54485802 35.95203865 -15.28431702 35.94694519 C-17.68750606 35.94188407 -20.09070212 35.93953661 -22.49389648 35.93969727 C-26.1698768 35.93751048 -29.84555714 35.91934505 -33.52148438 35.90039062 C-35.85676981 35.89745661 -38.19205666 35.89547187 -40.52734375 35.89453125 C-41.62642563 35.88734573 -42.72550751 35.88016022 -43.8578949 35.87275696 C-44.88568558 35.87583359 -45.91347626 35.87891022 -46.97241211 35.88208008 C-48.32332191 35.87994255 -48.32332191 35.87994255 -49.70152283 35.87776184 C-53.67735018 36.26347306 -56.42053277 37.29553277 -59.25 40.125 C-59.58052455 42.30624591 -59.58052455 42.30624591 -59.56884766 44.85009766 C-59.58871735 45.83096344 -59.60858704 46.81182922 -59.62905884 47.82241821 C-59.64638565 49.41465714 -59.64638565 49.41465714 -59.6640625 51.0390625 C-59.68342865 52.12383881 -59.7027948 53.20861511 -59.7227478 54.32626343 C-59.78266426 57.80076159 -59.82897739 61.27529267 -59.875 64.75 C-59.91316865 67.10157718 -59.95221971 69.45314021 -59.9921875 71.8046875 C-60.08837559 77.5779997 -60.17338753 83.35139666 -60.25 89.125 C-77.44608624 80.96429717 -88.44313831 53.31023385 -94.59326172 36.44042969 C-102.81220544 13.13902847 -102.81220544 13.13902847 -104.25 5.125 C-70.08028403 -1.67268885 -34.67573867 -2.0602235 0 0 Z " fill="#6B26B3" transform="translate(237.25,340.875)"/>
<path d="M0 0 C34.32 0 68.64 0 104 0 C104 7.875 104 7.875 103 11 C102.42228348 11.00142502 101.84456696 11.00285004 101.24934387 11.00431824 C95.23044498 11.0240213 89.21255942 11.07830753 83.1940918 11.15258789 C80.94872307 11.17576945 78.70324558 11.19016395 76.45776367 11.19555664 C73.22766327 11.2048447 69.99927391 11.24583423 66.76953125 11.29296875 C65.26613945 11.28706978 65.26613945 11.28706978 63.7323761 11.28105164 C62.79177841 11.30069473 61.85118073 11.32033783 60.88208008 11.34057617 C60.05823318 11.34723801 59.23438629 11.35389984 58.38557434 11.36076355 C54.70677752 12.34653078 53.26392279 13.96932445 51 17 C50.50251543 20.03838113 50.30767401 22.51940812 50.34057617 25.55395508 C50.32485062 26.82789124 50.32485062 26.82789124 50.30880737 28.12756348 C50.28008399 30.92525894 50.28634559 33.72171491 50.29296875 36.51953125 C50.27985206 38.46296233 50.26454792 40.40637978 50.24714661 42.34977722 C50.20728044 47.45766383 50.1971051 52.56519394 50.19311523 57.67321777 C50.18378688 62.8883751 50.14637517 68.10332269 50.11132812 73.31835938 C50.04673575 83.54556311 50.01350916 93.77261015 50 104 C46.51009001 103.44062465 43.25787301 102.87917846 39.94921875 101.625 C39.25119141 101.36203125 38.55316406 101.0990625 37.83398438 100.828125 C36.77147461 100.41820312 36.77147461 100.41820312 35.6875 100 C34.95982422 99.72671875 34.23214844 99.4534375 33.48242188 99.171875 C28.14074248 97.14074248 28.14074248 97.14074248 27 96 C26.79470755 92.47353196 26.68032512 88.94874969 26.57421875 85.41796875 C25.89747288 81.38971954 25.19939857 80.44744657 22 78 C18.8169119 77.35928071 18.8169119 77.35928071 15.265625 77.390625 C13.97011719 77.35839844 12.67460937 77.32617188 11.33984375 77.29296875 C9.97656698 77.27822531 8.61328555 77.26390778 7.25 77.25 C5.87105624 77.22183186 4.49214725 77.19190322 3.11328125 77.16015625 C-0.25787216 77.08943275 -3.6283328 77.03674496 -7 77 C-6.53512465 70.55352753 -5.92480637 64.14500009 -5.09765625 57.734375 C-4.92943359 56.42855469 -4.76121094 55.12273437 -4.58789062 53.77734375 C-4.24969712 51.16932129 -3.90176892 48.56315682 -3.54882812 45.95703125 C-1.59640397 30.61973732 -0.97214984 15.55439748 0 0 Z " fill="#6B26B3" transform="translate(309,246)"/>
<path d="M0 0 C0.31114746 0.97533691 0.62229492 1.95067383 0.94287109 2.95556641 C10.27075982 32.07735177 19.75147333 61.54660402 40.3203125 84.93359375 C42 87 42 87 43 90 C12.22440217 84.61753184 -17.04065426 69.8449678 -41 50 C-41.58265625 49.51885742 -42.1653125 49.03771484 -42.765625 48.54199219 C-62.99050759 31.74194281 -62.99050759 31.74194281 -68 24 C-67 21 -67 21 -64.3515625 19.4921875 C-63.11619534 18.93767317 -61.87315415 18.40009939 -60.625 17.875 C-59.93237061 17.57932129 -59.23974121 17.28364258 -58.52612305 16.97900391 C-17.53945494 0 -17.53945494 0 0 0 Z " fill="#6B26B3" transform="translate(117,349)"/>
<path d="M0 0 C-0.68964844 0.83660156 -1.37929687 1.67320313 -2.08984375 2.53515625 C-22.43371887 27.57068959 -35.04127501 57.88862051 -43 89 C-66.44175242 84.59612353 -89.67484803 77.87833209 -111 67 C-109.39668821 63.17741482 -106.85209273 60.37063945 -104.0625 57.375 C-103.57160889 56.84648438 -103.08071777 56.31796875 -102.57495117 55.7734375 C-84.36714239 36.41073175 -29.27214033 -9.40890225 0 0 Z " fill="#6B26B3" transform="translate(160,37)"/>
<path d="M0 0 C7.37944904 0.56973687 14.00753649 2.70784033 21 5.0625 C22.20245361 5.46662109 23.40490723 5.87074219 24.64379883 6.28710938 C33.21479068 9.23740971 41.28464947 12.57046526 49.19042969 16.99511719 C51.06089859 18.03381795 52.95245927 19.02256346 54.8515625 20.0078125 C71.45363861 28.77744097 86.05719384 40.30950101 99.41210938 53.44287109 C100.88898431 54.89113498 102.38894985 56.31574844 103.890625 57.73828125 C110.37237091 63.96524155 110.37237091 63.96524155 111 68 C90.30708508 78.96361457 66.87387203 85.48229139 44 90 C41.30661232 81.94565217 41.30661232 81.94565217 40.00830078 77.94140625 C31.13166539 50.60868181 20.43821036 25.05381769 1.6171875 2.9765625 C0 1 0 1 0 0 Z " fill="#6B26B3" transform="translate(252,36)"/>
<path d="M0 0 C11.31386861 3.39416058 11.31386861 3.39416058 16.5625 5.625 C18.08037109 6.26308594 18.08037109 6.26308594 19.62890625 6.9140625 C22 8 22 8 23 9 C23.800105 12.75433885 24.05552231 14.3906286 23 18 C19.86004522 21.95951883 16.32397771 25.29544214 12.54345703 28.63574219 C11.1822327 29.83892497 9.8521429 31.07713605 8.52734375 32.3203125 C3.45926113 37 3.45926113 37 0 37 C0 24.79 0 12.58 0 0 Z " fill="#6C24AF" transform="translate(336,360)"/>
<path d="M0 0 C0.66 0 1.32 0 2 0 C2 5.28 2 10.56 2 16 C-10.625 20.125 -10.625 20.125 -14 19 C-12.86111328 17.57107422 -12.86111328 17.57107422 -11.69921875 16.11328125 C-10.69515848 14.84647623 -9.6912608 13.57954232 -8.6875 12.3125 C-8.18798828 11.68666016 -7.68847656 11.06082031 -7.17382812 10.41601562 C-5.01221702 7.68179231 -3.03405233 5.05818874 -1.26953125 2.04296875 C-0.85058594 1.36878906 -0.43164062 0.69460938 0 0 Z " fill="#6A26B4" transform="translate(266,419)"/>
</svg>
